<?xml version="1.0" standalone="no"?>
<!DOCTYPE svg PUBLIC "-//W3C//DTD SVG 20010904//EN"
 "http://www.w3.org/TR/2001/REC-SVG-20010904/DTD/svg10.dtd">
<svg version="1.0" xmlns="http://www.w3.org/2000/svg"
 width="500.000000pt" height="500.000000pt" viewBox="0 0 500.000000 500.000000"
 preserveAspectRatio="xMidYMid meet">
<metadata>
Created by potrace 1.11, written by Peter Selinger 2001-2013
</metadata>
<g transform="translate(0.000000,500.000000) scale(0.100000,-0.100000)"
fill="#000000" stroke="none">
<path d="M2307 4054 c-1 -1 -42 -4 -92 -8 -49 -3 -99 -7 -110 -10 -11 -2 -42
-7 -70 -10 -77 -11 -201 -44 -304 -83 -274 -102 -487 -275 -649 -528 -105
-163 -210 -445 -237 -634 -5 -37 -14 -90 -22 -131 -3 -19 -7 -419 -9 -887 l-2
-853 784 0 784 0 0 355 0 355 -436 0 -435 0 3 578 3 577 28 80 c88 250 306
408 647 469 47 9 110 17 140 19 l55 3 3 355 2 354 -41 0 c-22 0 -41 -1 -42 -1z"/>
<path d="M2590 3703 c0 -329 1 -353 18 -354 9 -1 197 -3 417 -4 220 -2 408 -4
418 -4 17 -1 18 -27 14 -563 -2 -310 -7 -576 -10 -593 -42 -172 -126 -291
-277 -390 -106 -69 -280 -133 -407 -150 -27 -3 -57 -8 -68 -10 -11 -2 -41 -4
-67 -4 l-48 -1 0 -361 0 -360 103 5 c180 10 232 18 377 52 268 65 493 194 677
387 255 270 411 686 428 1142 3 81 8 1444 6 1536 l-1 27 -790 -2 -790 -1 0
-352z"/>
</g>
</svg>
