<?xml version="1.0" encoding="utf-8"?>
<!-- Generator: Adobe Illustrator 20.0.0, SVG Export Plug-In . SVG Version: 6.00 Build 0)  -->
<!DOCTYPE svg PUBLIC "-//W3C//DTD SVG 1.1//EN" "http://www.w3.org/Graphics/SVG/1.1/DTD/svg11.dtd">
<svg version="1.1" id="Layer_1" xmlns="http://www.w3.org/2000/svg" xmlns:xlink="http://www.w3.org/1999/xlink" x="0px" y="0px"
	 viewBox="0 0 90 90" style="enable-background:new 0 0 90 90;" xml:space="preserve">
<style type="text/css">
	.st0{fill:#FFFFFF;}
</style>
<g>
	<path class="st0" d="M71.5,48.1h-32V20.7c0-2.6-2.1-4.8-4.8-4.8H18.5c-2.6,0-4.8,2.1-4.8,4.8v42.8c0,2.6,2.1,4.8,4.8,4.8H24v1
		c0,2.6,2.1,4.8,4.8,4.8h42.8c2.6,0,4.8-2.1,4.8-4.8V52.9C76.3,50.3,74.2,48.1,71.5,48.1z M18.5,16.9h16.3c2.1,0,3.8,1.7,3.8,3.8
		v27.4h-1.4V22.6c0-0.3-0.2-0.5-0.5-0.5H16.5c-0.3,0-0.5,0.2-0.5,0.5v36.6c0,0.3,0.2,0.5,0.5,0.5H24v7.6h-5.5
		c-2.1,0-3.8-1.7-3.8-3.8V20.7C14.6,18.6,16.4,16.9,18.5,16.9z M17,23.1h19.3v25h-7.5c-2.6,0-4.8,2.1-4.8,4.8v5.8h-7
		C17,58.7,17,23.1,17,23.1z M71.5,73.1H28.8c-2.1,0-3.8-1.7-3.8-3.8V52.9c0-2.1,1.7-3.8,3.8-3.8h42.8c2.1,0,3.8,1.7,3.8,3.8v16.3
		C75.4,71.4,73.6,73.1,71.5,73.1z"/>
	<path class="st0" d="M28.9,58.4c-1.5,0-2.7,1.2-2.7,2.7c0,1.5,1.2,2.7,2.7,2.7c1.5,0,2.7-1.2,2.7-2.7
		C31.6,59.6,30.4,58.4,28.9,58.4z M28.9,62.8c-0.9,0-1.7-0.8-1.7-1.7c0-0.9,0.8-1.7,1.7-1.7c0.9,0,1.7,0.8,1.7,1.7
		C30.6,62,29.9,62.8,28.9,62.8z"/>
	<path class="st0" d="M69.7,50.5H33.1c-0.3,0-0.5,0.2-0.5,0.5v20.3c0,0.3,0.2,0.5,0.5,0.5h36.6c0.3,0,0.5-0.2,0.5-0.5V50.9
		C70.1,50.7,69.9,50.5,69.7,50.5z M69.2,51.4v19.3H33.5V51.4H69.2z"/>
	<path class="st0" d="M45.2,30.3c6.7,0,12.2,5.4,12.6,12l-3-2.6c-0.2-0.2-0.5-0.1-0.7,0c-0.2,0.2-0.2,0.5,0,0.7l3.9,3.4
		c0.1,0.1,0.2,0.1,0.3,0.1c0.1,0,0.3-0.1,0.4-0.2l3.4-3.9c0.2-0.2,0.2-0.5,0-0.7c-0.2-0.2-0.5-0.1-0.7,0l-2.6,3
		c-0.2-3.4-1.6-6.6-4.1-9c-2.5-2.5-5.9-3.8-9.4-3.8c-0.3,0-0.5,0.2-0.5,0.5C44.7,30.1,44.9,30.3,45.2,30.3z"/>
</g>
</svg>
